<svg width="293" height="48" viewBox="0 0 293 48" fill="none" xmlns="http://www.w3.org/2000/svg">
<path d="M3.19602 39V9.90909H7.58523V35.2216H20.767V39H3.19602Z" fill="#1036FF"/>
<path d="M199.761 31.5994L199.733 26.4148H200.472L209.165 17.1818H214.25L204.335 27.6932H203.668L199.761 31.5994ZM195.855 39V9.90909H200.102V39H195.855ZM209.634 39L201.821 28.6307L204.747 25.6619L214.847 39H209.634Z" fill="#E6A425"/>
<path d="M49.0455 39.4403C47 39.4403 45.215 38.9716 43.6903 38.0341C42.1657 37.0966 40.982 35.785 40.1392 34.0994C39.2964 32.4138 38.875 30.4441 38.875 28.1903C38.875 25.9271 39.2964 23.9479 40.1392 22.2528C40.982 20.5578 42.1657 19.2415 43.6903 18.304C45.215 17.3665 47 16.8977 49.0455 16.8977C51.0909 16.8977 52.8759 17.3665 54.4006 18.304C55.9252 19.2415 57.1089 20.5578 57.9517 22.2528C58.7945 23.9479 59.2159 25.9271 59.2159 28.1903C59.2159 30.4441 58.7945 32.4138 57.9517 34.0994C57.1089 35.785 55.9252 37.0966 54.4006 38.0341C52.8759 38.9716 51.0909 39.4403 49.0455 39.4403ZM49.0597 35.875C50.3854 35.875 51.4839 35.5246 52.3551 34.8239C53.2263 34.1231 53.8703 33.1903 54.2869 32.0256C54.7131 30.8608 54.9261 29.5777 54.9261 28.1761C54.9261 26.7841 54.7131 25.5057 54.2869 24.3409C53.8703 23.1667 53.2263 22.2244 52.3551 21.5142C51.4839 20.804 50.3854 20.4489 49.0597 20.4489C47.7244 20.4489 46.6165 20.804 45.7358 21.5142C44.8646 22.2244 44.2159 23.1667 43.7898 24.3409C43.3731 25.5057 43.1648 26.7841 43.1648 28.1761C43.1648 29.5777 43.3731 30.8608 43.7898 32.0256C44.2159 33.1903 44.8646 34.1231 45.7358 34.8239C46.6165 35.5246 47.7244 35.875 49.0597 35.875Z" fill="#B82C2C"/>
<path d="M246.676 29.9517V17.1818H250.938V39H246.761V35.2216H246.534C246.032 36.3864 245.227 37.357 244.119 38.1335C243.021 38.9006 241.652 39.2841 240.014 39.2841C238.613 39.2841 237.372 38.9763 236.293 38.3608C235.223 37.7358 234.38 36.8125 233.764 35.5909C233.158 34.3693 232.855 32.8589 232.855 31.0597V17.1818H237.102V30.5483C237.102 32.035 237.514 33.2187 238.338 34.0994C239.162 34.9801 240.232 35.4205 241.548 35.4205C242.344 35.4205 243.134 35.2216 243.92 34.8239C244.716 34.4261 245.374 33.8248 245.895 33.0199C246.425 32.215 246.686 31.1922 246.676 29.9517Z" fill="#1BB621"/>
<path d="M270.855 47.1818V17.1818H275.003V20.7188H275.358C275.604 20.2642 275.959 19.7386 276.423 19.142C276.887 18.5455 277.531 18.0246 278.355 17.5795C279.179 17.125 280.268 16.8977 281.622 16.8977C283.384 16.8977 284.955 17.3428 286.338 18.233C287.721 19.1231 288.805 20.4062 289.591 22.0824C290.386 23.7585 290.784 25.7756 290.784 28.1335C290.784 30.4915 290.391 32.5133 289.605 34.1989C288.819 35.875 287.74 37.1676 286.366 38.0767C284.993 38.9763 283.426 39.4261 281.665 39.4261C280.339 39.4261 279.255 39.2036 278.412 38.7585C277.579 38.3134 276.925 37.7926 276.452 37.196C275.978 36.5994 275.614 36.0691 275.358 35.6051H275.102V47.1818H270.855ZM275.017 28.0909C275.017 29.625 275.24 30.9697 275.685 32.125C276.13 33.2803 276.774 34.1847 277.616 34.8381C278.459 35.482 279.491 35.804 280.713 35.804C281.982 35.804 283.043 35.4678 283.895 34.7955C284.747 34.1136 285.391 33.1903 285.827 32.0256C286.272 30.8608 286.494 29.5492 286.494 28.0909C286.494 26.6515 286.277 25.3589 285.841 24.2131C285.415 23.0672 284.771 22.1629 283.909 21.5C283.057 20.8371 281.991 20.5057 280.713 20.5057C279.482 20.5057 278.44 20.8229 277.588 21.4574C276.745 22.0919 276.106 22.9773 275.67 24.1136C275.235 25.25 275.017 26.5758 275.017 28.0909Z" fill="#B82C2C"/>
<path d="M88.0455 39.4403C86 39.4403 84.215 38.9716 82.6903 38.0341C81.1657 37.0966 79.982 35.785 79.1392 34.0994C78.2964 32.4138 77.875 30.4441 77.875 28.1903C77.875 25.9271 78.2964 23.9479 79.1392 22.2528C79.982 20.5578 81.1657 19.2415 82.6903 18.304C84.215 17.3665 86 16.8977 88.0455 16.8977C90.0909 16.8977 91.8759 17.3665 93.4006 18.304C94.9252 19.2415 96.1089 20.5578 96.9517 22.2528C97.7945 23.9479 98.2159 25.9271 98.2159 28.1903C98.2159 30.4441 97.7945 32.4138 96.9517 34.0994C96.1089 35.785 94.9252 37.0966 93.4006 38.0341C91.8759 38.9716 90.0909 39.4403 88.0455 39.4403ZM88.0597 35.875C89.3854 35.875 90.4839 35.5246 91.3551 34.8239C92.2263 34.1231 92.8703 33.1903 93.2869 32.0256C93.7131 30.8608 93.9261 29.5777 93.9261 28.1761C93.9261 26.7841 93.7131 25.5057 93.2869 24.3409C92.8703 23.1667 92.2263 22.2244 91.3551 21.5142C90.4839 20.804 89.3854 20.4489 88.0597 20.4489C86.7244 20.4489 85.6165 20.804 84.7358 21.5142C83.8646 22.2244 83.2159 23.1667 82.7898 24.3409C82.3731 25.5057 82.1648 26.7841 82.1648 28.1761C82.1648 29.5777 82.3731 30.8608 82.7898 32.0256C83.2159 33.1903 83.8646 34.1231 84.7358 34.8239C85.6165 35.5246 86.7244 35.875 88.0597 35.875Z" fill="#E6A425"/>
<path d="M166.045 39.4403C164 39.4403 162.215 38.9716 160.69 38.0341C159.166 37.0966 157.982 35.785 157.139 34.0994C156.296 32.4138 155.875 30.4441 155.875 28.1903C155.875 25.9271 156.296 23.9479 157.139 22.2528C157.982 20.5578 159.166 19.2415 160.69 18.304C162.215 17.3665 164 16.8977 166.045 16.8977C168.091 16.8977 169.876 17.3665 171.401 18.304C172.925 19.2415 174.109 20.5578 174.952 22.2528C175.795 23.9479 176.216 25.9271 176.216 28.1903C176.216 30.4441 175.795 32.4138 174.952 34.0994C174.109 35.785 172.925 37.0966 171.401 38.0341C169.876 38.9716 168.091 39.4403 166.045 39.4403ZM166.06 35.875C167.385 35.875 168.484 35.5246 169.355 34.8239C170.226 34.1231 170.87 33.1903 171.287 32.0256C171.713 30.8608 171.926 29.5777 171.926 28.1761C171.926 26.7841 171.713 25.5057 171.287 24.3409C170.87 23.1667 170.226 22.2244 169.355 21.5142C168.484 20.804 167.385 20.4489 166.06 20.4489C164.724 20.4489 163.616 20.804 162.736 21.5142C161.865 22.2244 161.216 23.1667 160.79 24.3409C160.373 25.5057 160.165 26.7841 160.165 28.1761C160.165 29.5777 160.373 30.8608 160.79 32.0256C161.216 33.1903 161.865 34.1231 162.736 34.8239C163.616 35.5246 164.724 35.875 166.06 35.875Z" fill="#E6A425"/>
<path d="M127.045 39.4403C125 39.4403 123.215 38.9716 121.69 38.0341C120.166 37.0966 118.982 35.785 118.139 34.0994C117.296 32.4138 116.875 30.4441 116.875 28.1903C116.875 25.9271 117.296 23.9479 118.139 22.2528C118.982 20.5578 120.166 19.2415 121.69 18.304C123.215 17.3665 125 16.8977 127.045 16.8977C129.091 16.8977 130.876 17.3665 132.401 18.304C133.925 19.2415 135.109 20.5578 135.952 22.2528C136.795 23.9479 137.216 25.9271 137.216 28.1903C137.216 30.4441 136.795 32.4138 135.952 34.0994C135.109 35.785 133.925 37.0966 132.401 38.0341C130.876 38.9716 129.091 39.4403 127.045 39.4403ZM127.06 35.875C128.385 35.875 129.484 35.5246 130.355 34.8239C131.226 34.1231 131.87 33.1903 132.287 32.0256C132.713 30.8608 132.926 29.5777 132.926 28.1761C132.926 26.7841 132.713 25.5057 132.287 24.3409C131.87 23.1667 131.226 22.2244 130.355 21.5142C129.484 20.804 128.385 20.4489 127.06 20.4489C125.724 20.4489 124.616 20.804 123.736 21.5142C122.865 22.2244 122.216 23.1667 121.79 24.3409C121.373 25.5057 121.165 26.7841 121.165 28.1761C121.165 29.5777 121.373 30.8608 121.79 32.0256C122.216 33.1903 122.865 34.1231 123.736 34.8239C124.616 35.5246 125.724 35.875 127.06 35.875Z" fill="#1036FF"/>
</svg>
