<svg width="37" height="41" viewBox="0 0 37 41" fill="none" xmlns="http://www.w3.org/2000/svg">
<path d="M3.98018 36.0333L0.771606 0.0318604H36.0402L32.8273 36.0276L18.3845 40.0319L3.98018 36.0333Z" fill="black"/>
<path d="M18.4059 36.9718L30.0773 33.7361L32.823 2.97607H18.4059V36.9718Z" fill="black"/>
<path d="M18.4059 16.0192H24.2487L24.6516 11.4977H18.4059V7.08203H18.4216H29.4773L29.3716 8.26632L28.2873 20.4349H18.4059V16.0192Z" fill="#E8E8E8"/>
<path d="M18.4331 27.486L18.4131 27.4917L13.4959 26.1632L13.1816 22.6417H10.7916H8.74878L9.36735 29.5746L18.4116 32.086L18.4331 32.0803V27.486Z" fill="#EBEBEB"/>
<path d="M23.873 20.2472L23.3416 26.1601L18.4173 27.4886V32.0829L27.4687 29.5743L27.5359 28.8286L28.303 20.2472H23.873Z" fill="#E8E8E8"/>
<path d="M18.4214 7.08203V9.82489V11.4863V11.4977H7.76999H7.7557L7.66713 10.5049L7.4657 8.26632L7.35999 7.08203H18.4214Z" fill="#EBEBEB"/>
<path d="M18.4058 16.019V18.7619V20.4233V20.4348H13.5644H13.5501L13.4615 19.4419L13.2615 17.2033L13.1558 16.019H18.4058Z" fill="#EBEBEB"/>
</svg>
