<svg width="37" height="41" viewBox="0 0 37 41" fill="none" xmlns="http://www.w3.org/2000/svg">
<path d="M4.01481 36.0333L0.80481 0.0318604H36.0762L32.862 36.0276L18.4191 40.0319L4.01481 36.0333Z" fill="black"/>
<path d="M18.4405 36.9718L30.1119 33.7361L32.8576 2.97607H18.4405V36.9718Z" fill="black"/>
<path d="M18.4404 16.3272H12.5976L12.1947 11.8057H18.4404V7.39001H18.4247H7.36902L7.47473 8.57573L8.55902 20.7429H18.4404V16.3272Z" fill="#EBEBEB"/>
<path d="M18.4405 27.7943L18.4205 27.8L13.5033 26.4728L13.1891 22.9514H10.7991H8.7562L9.37477 29.8828L18.4205 32.3943L18.4405 32.3886V27.7943Z" fill="#EBEBEB"/>
<path d="M18.4248 16.3275V20.7432H23.862L23.3505 26.4704L18.4248 27.7989V32.3932L27.4777 29.8832L27.5434 29.1375L28.5805 17.5132L28.6891 16.3275H27.4991H18.4248Z" fill="#E8E8E8"/>
<path d="M18.4248 7.39001V10.1329V11.7957V11.8057H29.0763H29.0906L29.1791 10.8143L29.3806 8.57573L29.4863 7.39001H18.4248Z" fill="#E8E8E8"/>
</svg>
