<svg width="41" height="41" viewBox="0 0 41 41" fill="none" xmlns="http://www.w3.org/2000/svg">
<path d="M34.5743 0.0318604H6.57434C3.26063 0.0318604 0.574341 2.71815 0.574341 6.03186V34.0319C0.574341 37.3456 3.26063 40.0319 6.57434 40.0319H34.5743C37.8881 40.0319 40.5743 37.3456 40.5743 34.0319V6.03186C40.5743 2.71815 37.8881 0.0318604 34.5743 0.0318604Z" fill="black"/>
<path d="M25.8869 28.938C26.6682 30.2661 27.7619 31.2036 29.5588 31.2036C31.1213 31.2036 32.1369 30.4224 32.1369 29.3286C32.1369 28.0786 31.1213 27.6099 29.4025 26.8286L28.465 26.438C25.7307 25.2661 23.9338 23.8599 23.9338 20.813C23.9338 18.0005 26.0432 15.813 29.4025 15.813C31.8244 15.813 33.5431 16.6724 34.715 18.8599L31.8244 20.7349C31.1994 19.563 30.4963 19.0942 29.4025 19.0942C28.3088 19.0942 27.6057 19.7974 27.6057 20.7349C27.6057 21.8286 28.3088 22.2974 29.9494 23.0005L30.8869 23.3911C34.09 24.7974 35.8869 26.1255 35.8869 29.3286C35.8869 32.688 33.2306 34.563 29.6369 34.563C26.1213 34.563 23.8557 32.9224 22.7619 30.7349L25.8869 28.938ZM12.6057 29.2505C13.2307 30.2661 13.6994 31.2036 15.0275 31.2036C16.2775 31.2036 17.0588 30.7349 17.0588 28.8599V15.8911H20.8088V28.7036C20.8088 32.6099 18.5432 34.3286 15.1838 34.3286C12.1369 34.3286 10.4182 32.7661 9.55878 30.8911L12.6057 29.2505Z" fill="#E8E8E8"/>
</svg>
