<svg width="116" height="34" viewBox="0 0 116 34" fill="none" xmlns="http://www.w3.org/2000/svg">
<path d="M2.23722 27V6.63636H5.30966V24.3551H14.5369V27H2.23722Z" fill="#1036FF" fill-opacity="0.57"/>
<path d="M27.4318 27.3082C26 27.3082 24.7505 26.9801 23.6832 26.3239C22.616 25.6676 21.7874 24.7495 21.1974 23.5696C20.6075 22.3897 20.3125 21.0109 20.3125 19.4332C20.3125 17.849 20.6075 16.4635 21.1974 15.277C21.7874 14.0904 22.616 13.169 23.6832 12.5128C24.7505 11.8565 26 11.5284 27.4318 11.5284C28.8636 11.5284 30.1132 11.8565 31.1804 12.5128C32.2476 13.169 33.0762 14.0904 33.6662 15.277C34.2562 16.4635 34.5511 17.849 34.5511 19.4332C34.5511 21.0109 34.2562 22.3897 33.6662 23.5696C33.0762 24.7495 32.2476 25.6676 31.1804 26.3239C30.1132 26.9801 28.8636 27.3082 27.4318 27.3082ZM27.4418 24.8125C28.3698 24.8125 29.1387 24.5672 29.7486 24.0767C30.3584 23.5862 30.8092 22.9332 31.1009 22.1179C31.3991 21.3026 31.5483 20.4044 31.5483 19.4233C31.5483 18.4489 31.3991 17.554 31.1009 16.7386C30.8092 15.9167 30.3584 15.2571 29.7486 14.7599C29.1387 14.2628 28.3698 14.0142 27.4418 14.0142C26.5071 14.0142 25.7315 14.2628 25.1151 14.7599C24.5052 15.2571 24.0511 15.9167 23.7528 16.7386C23.4612 17.554 23.3153 18.4489 23.3153 19.4233C23.3153 20.4044 23.4612 21.3026 23.7528 22.1179C24.0511 22.9332 24.5052 23.5862 25.1151 24.0767C25.7315 24.5672 26.5071 24.8125 27.4418 24.8125Z" fill="#B82C2C"/>
<path d="M47.4318 27.3082C46 27.3082 44.7505 26.9801 43.6832 26.3239C42.616 25.6676 41.7874 24.7495 41.1974 23.5696C40.6075 22.3897 40.3125 21.0109 40.3125 19.4332C40.3125 17.849 40.6075 16.4635 41.1974 15.277C41.7874 14.0904 42.616 13.169 43.6832 12.5128C44.7505 11.8565 46 11.5284 47.4318 11.5284C48.8636 11.5284 50.1132 11.8565 51.1804 12.5128C52.2476 13.169 53.0762 14.0904 53.6662 15.277C54.2562 16.4635 54.5511 17.849 54.5511 19.4332C54.5511 21.0109 54.2562 22.3897 53.6662 23.5696C53.0762 24.7495 52.2476 25.6676 51.1804 26.3239C50.1132 26.9801 48.8636 27.3082 47.4318 27.3082ZM47.4418 24.8125C48.3698 24.8125 49.1387 24.5672 49.7486 24.0767C50.3584 23.5862 50.8092 22.9332 51.1009 22.1179C51.3991 21.3026 51.5483 20.4044 51.5483 19.4233C51.5483 18.4489 51.3991 17.554 51.1009 16.7386C50.8092 15.9167 50.3584 15.2571 49.7486 14.7599C49.1387 14.2628 48.3698 14.0142 47.4418 14.0142C46.5071 14.0142 45.7315 14.2628 45.1151 14.7599C44.5052 15.2571 44.0511 15.9167 43.7528 16.7386C43.4612 17.554 43.3153 18.4489 43.3153 19.4233C43.3153 20.4044 43.4612 21.3026 43.7528 22.1179C44.0511 22.9332 44.5052 23.5862 45.1151 24.0767C45.7315 24.5672 46.5071 24.8125 47.4418 24.8125Z" fill="#E6A425"/>
<path d="M63.733 21.8196L63.7131 18.1903H64.2301L70.3153 11.7273H73.875L66.9347 19.0852H66.4673L63.733 21.8196ZM60.9986 27V6.63636H63.9716V27H60.9986ZM70.6435 27L65.1747 19.7415L67.223 17.6634L74.2926 27H70.6435Z" fill="#1036FF" fill-opacity="0.57"/>
<path d="M89.6733 20.6662V11.7273H92.6562V27H89.733V24.3551H89.5739C89.2225 25.1705 88.6591 25.8499 87.8835 26.3935C87.1146 26.9304 86.1567 27.1989 85.0099 27.1989C84.0289 27.1989 83.1605 26.9834 82.4048 26.5526C81.6558 26.1151 81.0658 25.4688 80.6349 24.6136C80.2107 23.7585 79.9986 22.7012 79.9986 21.4418V11.7273H82.9716V21.0838C82.9716 22.1245 83.2599 22.9531 83.8366 23.5696C84.4134 24.1861 85.1624 24.4943 86.0838 24.4943C86.6406 24.4943 87.1941 24.3551 87.7443 24.0767C88.3011 23.7983 88.7618 23.3774 89.1264 22.8139C89.4976 22.2505 89.6799 21.5346 89.6733 20.6662Z" fill="#1BB621"/>
<path d="M99.9986 32.7273V11.7273H102.902V14.2031H103.151C103.323 13.8849 103.571 13.517 103.896 13.0994C104.221 12.6818 104.672 12.3172 105.249 12.0057C105.825 11.6875 106.588 11.5284 107.536 11.5284C108.768 11.5284 109.869 11.84 110.837 12.4631C111.804 13.0862 112.563 13.9844 113.114 15.1577C113.67 16.331 113.949 17.7429 113.949 19.3935C113.949 21.044 113.674 22.4593 113.124 23.6392C112.573 24.8125 111.818 25.7173 110.857 26.3537C109.895 26.9834 108.798 27.2983 107.565 27.2983C106.637 27.2983 105.878 27.1425 105.288 26.831C104.705 26.5194 104.248 26.1548 103.916 25.7372C103.585 25.3196 103.33 24.9484 103.151 24.6236H102.972V32.7273H99.9986ZM102.912 19.3636C102.912 20.4375 103.068 21.3788 103.379 22.1875C103.691 22.9962 104.142 23.6293 104.732 24.0866C105.321 24.5374 106.044 24.7628 106.899 24.7628C107.787 24.7628 108.53 24.5275 109.126 24.0568C109.723 23.5795 110.174 22.9332 110.479 22.1179C110.79 21.3026 110.946 20.3845 110.946 19.3636C110.946 18.3561 110.794 17.4512 110.489 16.6491C110.19 15.8471 109.74 15.214 109.136 14.75C108.54 14.286 107.794 14.054 106.899 14.054C106.037 14.054 105.308 14.276 104.712 14.7202C104.122 15.1643 103.674 15.7841 103.369 16.5795C103.064 17.375 102.912 18.303 102.912 19.3636Z" fill="#B82C2C"/>
</svg>
