<svg width="121" height="37" viewBox="0 0 121 37" fill="none" xmlns="http://www.w3.org/2000/svg">
<path d="M6.22443 27L0.576705 6.63636H3.80824L7.77557 22.4062H7.96449L12.0909 6.63636H15.2926L19.419 22.4162H19.608L23.5653 6.63636H26.8068L21.1491 27H18.0568L13.7713 11.7472H13.6122L9.3267 27H6.22443Z" fill="#1036FF" fill-opacity="0.57"/>
<path d="M32.9716 17.9318V27H29.9986V6.63636H32.9318V14.2131H33.1207C33.4787 13.3911 34.0256 12.7382 34.7614 12.2543C35.4972 11.7704 36.4583 11.5284 37.6449 11.5284C38.6922 11.5284 39.607 11.7438 40.3892 12.1747C41.178 12.6056 41.7879 13.2486 42.2188 14.1037C42.6562 14.9522 42.875 16.0128 42.875 17.2855V27H39.902V17.6435C39.902 16.5232 39.6136 15.6548 39.0369 15.0384C38.4602 14.4152 37.6581 14.1037 36.6307 14.1037C35.928 14.1037 35.2983 14.2528 34.7415 14.5511C34.1913 14.8494 33.7571 15.2869 33.4389 15.8636C33.1274 16.4337 32.9716 17.1231 32.9716 17.9318Z" fill="#1036FF" fill-opacity="0.57"/>
<path d="M53.4318 27.3082C52 27.3082 50.7505 26.9801 49.6832 26.3239C48.616 25.6676 47.7874 24.7495 47.1974 23.5696C46.6075 22.3897 46.3125 21.0109 46.3125 19.4332C46.3125 17.849 46.6075 16.4635 47.1974 15.277C47.7874 14.0904 48.616 13.169 49.6832 12.5128C50.7505 11.8565 52 11.5284 53.4318 11.5284C54.8636 11.5284 56.1132 11.8565 57.1804 12.5128C58.2476 13.169 59.0762 14.0904 59.6662 15.277C60.2562 16.4635 60.5511 17.849 60.5511 19.4332C60.5511 21.0109 60.2562 22.3897 59.6662 23.5696C59.0762 24.7495 58.2476 25.6676 57.1804 26.3239C56.1132 26.9801 54.8636 27.3082 53.4318 27.3082ZM53.4418 24.8125C54.3698 24.8125 55.1387 24.5672 55.7486 24.0767C56.3584 23.5862 56.8092 22.9332 57.1009 22.1179C57.3991 21.3026 57.5483 20.4044 57.5483 19.4233C57.5483 18.4489 57.3991 17.554 57.1009 16.7386C56.8092 15.9167 56.3584 15.2571 55.7486 14.7599C55.1387 14.2628 54.3698 14.0142 53.4418 14.0142C52.5071 14.0142 51.7315 14.2628 51.1151 14.7599C50.5052 15.2571 50.0511 15.9167 49.7528 16.7386C49.4612 17.554 49.3153 18.4489 49.3153 19.4233C49.3153 20.4044 49.4612 21.3026 49.7528 22.1179C50.0511 22.9332 50.5052 23.5862 51.1151 24.0767C51.7315 24.5672 52.5071 24.8125 53.4418 24.8125Z" fill="#E6A425"/>
<path d="M70.4318 27.3082C69 27.3082 67.7505 26.9801 66.6832 26.3239C65.616 25.6676 64.7874 24.7495 64.1974 23.5696C63.6075 22.3897 63.3125 21.0109 63.3125 19.4332C63.3125 17.849 63.6075 16.4635 64.1974 15.277C64.7874 14.0904 65.616 13.169 66.6832 12.5128C67.7505 11.8565 69 11.5284 70.4318 11.5284C71.8636 11.5284 73.1132 11.8565 74.1804 12.5128C75.2476 13.169 76.0762 14.0904 76.6662 15.277C77.2562 16.4635 77.5511 17.849 77.5511 19.4332C77.5511 21.0109 77.2562 22.3897 76.6662 23.5696C76.0762 24.7495 75.2476 25.6676 74.1804 26.3239C73.1132 26.9801 71.8636 27.3082 70.4318 27.3082ZM70.4418 24.8125C71.3698 24.8125 72.1387 24.5672 72.7486 24.0767C73.3584 23.5862 73.8092 22.9332 74.1009 22.1179C74.3991 21.3026 74.5483 20.4044 74.5483 19.4233C74.5483 18.4489 74.3991 17.554 74.1009 16.7386C73.8092 15.9167 73.3584 15.2571 72.7486 14.7599C72.1387 14.2628 71.3698 14.0142 70.4418 14.0142C69.5071 14.0142 68.7315 14.2628 68.1151 14.7599C67.5052 15.2571 67.0511 15.9167 66.7528 16.7386C66.4612 17.554 66.3153 18.4489 66.3153 19.4233C66.3153 20.4044 66.4612 21.3026 66.7528 22.1179C67.0511 22.9332 67.5052 23.5862 68.1151 24.0767C68.7315 24.5672 69.5071 24.8125 70.4418 24.8125Z" fill="#E6A425"/>
<path d="M87.402 33.0455C86.1889 33.0455 85.1449 32.8864 84.2699 32.5682C83.4015 32.25 82.6922 31.8291 82.142 31.3054C81.5919 30.7817 81.1809 30.2083 80.9091 29.5852L83.4645 28.5312C83.6435 28.8229 83.8821 29.1312 84.1804 29.456C84.4853 29.7874 84.8963 30.0691 85.4134 30.3011C85.937 30.5331 86.6098 30.6491 87.4318 30.6491C88.5587 30.6491 89.4901 30.3741 90.2259 29.8239C90.9616 29.2803 91.3295 28.4119 91.3295 27.2188V24.2159H91.1406C90.9616 24.5407 90.7031 24.902 90.3651 25.2997C90.0336 25.6974 89.5762 26.0421 88.9929 26.3338C88.4096 26.6255 87.6506 26.7713 86.7159 26.7713C85.5095 26.7713 84.4223 26.4896 83.4545 25.9261C82.4934 25.3561 81.7311 24.5175 81.1676 23.4105C80.6108 22.2969 80.3324 20.928 80.3324 19.304C80.3324 17.6799 80.6075 16.2879 81.1577 15.1278C81.7145 13.9678 82.4768 13.0795 83.4446 12.4631C84.4124 11.84 85.5095 11.5284 86.7358 11.5284C87.6837 11.5284 88.4493 11.6875 89.0327 12.0057C89.616 12.3172 90.0701 12.6818 90.3949 13.0994C90.7263 13.517 90.9815 13.8849 91.1605 14.2031H91.3793V11.7273H94.2926V27.3381C94.2926 28.6506 93.9877 29.7277 93.3778 30.5696C92.768 31.4115 91.9427 32.0346 90.902 32.4389C89.8679 32.8433 88.7012 33.0455 87.402 33.0455ZM87.3722 24.3054C88.2273 24.3054 88.9498 24.1065 89.5398 23.7088C90.1364 23.3045 90.5871 22.7277 90.892 21.9787C91.2036 21.223 91.3594 20.3182 91.3594 19.2642C91.3594 18.2367 91.2069 17.3319 90.902 16.5497C90.5971 15.7675 90.1496 15.1577 89.5597 14.7202C88.9697 14.276 88.2405 14.054 87.3722 14.054C86.4773 14.054 85.7315 14.286 85.1349 14.75C84.5384 15.2074 84.0876 15.8305 83.7827 16.6193C83.4844 17.4081 83.3352 18.2898 83.3352 19.2642C83.3352 20.2652 83.4877 21.1435 83.7926 21.8991C84.0975 22.6548 84.5483 23.2448 85.1449 23.669C85.7481 24.0933 86.4905 24.3054 87.3722 24.3054Z" fill="#1036FF" fill-opacity="0.57"/>
<path d="M101.972 9.63636V30H98.9986V9.63636H101.972Z" fill="#1BB621"/>
<path d="M112.581 27.3082C111.076 27.3082 109.78 26.9867 108.693 26.3438C107.613 25.6941 106.777 24.7827 106.188 23.6094C105.604 22.4295 105.312 21.0473 105.312 19.4631C105.312 17.8987 105.604 16.5199 106.188 15.3267C106.777 14.1335 107.599 13.2022 108.653 12.5327C109.714 11.8632 110.954 11.5284 112.372 11.5284C113.234 11.5284 114.069 11.6709 114.878 11.956C115.687 12.241 116.412 12.6884 117.055 13.2983C117.698 13.9081 118.205 14.7003 118.577 15.6747C118.948 16.6425 119.134 17.8191 119.134 19.2045V20.2585H106.993V18.0312H116.22C116.22 17.2491 116.061 16.5563 115.743 15.9531C115.425 15.3433 114.977 14.8627 114.401 14.5114C113.83 14.16 113.161 13.9844 112.392 13.9844C111.557 13.9844 110.828 14.1899 110.205 14.6009C109.588 15.0052 109.111 15.5355 108.773 16.1918C108.441 16.8414 108.276 17.5473 108.276 18.3097V20.0497C108.276 21.0705 108.455 21.9389 108.812 22.6548C109.177 23.3707 109.684 23.9176 110.334 24.2955C110.983 24.6667 111.742 24.8523 112.611 24.8523C113.174 24.8523 113.688 24.7727 114.152 24.6136C114.616 24.4479 115.017 24.2027 115.355 23.8778C115.693 23.553 115.952 23.152 116.131 22.6747L118.945 23.1818C118.719 24.0104 118.315 24.7363 117.732 25.3594C117.155 25.9759 116.429 26.4564 115.554 26.8011C114.686 27.1392 113.695 27.3082 112.581 27.3082Z" fill="#B82C2C"/>
</svg>
