<svg width="35" height="35" viewBox="0 0 35 35" fill="none" xmlns="http://www.w3.org/2000/svg">
<path d="M32.4178 0.00013254H2.58195C1.90499 -0.0067569 1.25295 0.255184 0.768901 0.72848C0.284849 1.20178 0.00832284 1.84777 0 2.5247V32.481C0.00982799 33.157 0.287015 33.8015 0.770903 34.2736C1.25479 34.7456 1.90597 35.0068 2.58195 34.9999H32.4178C33.0948 35.0052 33.7464 34.7424 34.2302 34.2688C34.714 33.7952 34.9907 33.1494 34.9997 32.4724V2.5161C34.9877 1.84114 34.7097 1.19823 34.2262 0.727111C33.7427 0.255988 33.0928 -0.00526707 32.4178 0.00013254Z" fill="black"/>
<path d="M5.18069 13.119H10.3761V29.8357H5.18069V13.119ZM7.77985 4.79944C8.37574 4.79944 8.95825 4.97618 9.45368 5.3073C9.9491 5.63842 10.3352 6.10904 10.5631 6.65963C10.791 7.21022 10.8505 7.81603 10.734 8.40043C10.6176 8.98483 10.3304 9.52156 9.90883 9.94272C9.48727 10.3639 8.95027 10.6505 8.36576 10.7665C7.78124 10.8824 7.17549 10.8223 6.62512 10.5939C6.07474 10.3654 5.60449 9.97889 5.27384 9.48315C4.9432 8.98741 4.76701 8.40474 4.76758 7.80884C4.76834 7.01043 5.08604 6.24499 5.65087 5.6807C6.21569 5.11641 6.98144 4.79944 7.77985 4.79944Z" fill="#D9D9D9"/>
<path d="M13.6348 13.1191H18.6151V15.4142H18.6839C19.3782 14.1003 21.0708 12.7146 23.5982 12.7146C28.8596 12.7032 29.8351 16.1658 29.8351 20.6556V29.8358H24.6396V21.7027C24.6396 19.7662 24.6052 17.2732 21.94 17.2732C19.2749 17.2732 18.8216 19.3847 18.8216 21.5764V29.8358H13.6348V13.1191Z" fill="#D9D9D9"/>
</svg>
