<svg width="23" height="26" viewBox="0 0 23 26" fill="none" xmlns="http://www.w3.org/2000/svg">
<path d="M2.08557 23.4009L0 0H22.9246L20.8362 23.3972L11.4484 26L2.08557 23.4009Z" fill="black"/>
<path d="M11.4619 24.0109L19.0483 21.9077L20.8331 1.9137H11.4619V24.0109Z" fill="black"/>
<path d="M11.4619 10.3917H15.2598L15.5216 7.45273H11.4619V4.58252H11.4721H18.6583L18.5896 5.35231L17.8848 13.2619H11.4619V10.3917Z" fill="white"/>
<path d="M11.4803 17.8452L11.4673 17.8489L8.27119 16.9853L8.0669 14.6964H6.5134H5.18555L5.58762 19.2028L11.4664 20.8352L11.4803 20.8315V17.8452Z" fill="#EBEBEB"/>
<path d="M15.0159 13.1399L14.6705 16.9833L11.4697 17.8468V20.8331L17.3532 19.2025L17.3968 18.7178L17.8954 13.1399H15.0159Z" fill="white"/>
<path d="M11.4722 4.58264V6.3655V7.44543V7.45286H4.54873H4.53944L4.48187 6.8075L4.35094 5.35243L4.28223 4.58264H11.4722Z" fill="#EBEBEB"/>
<path d="M11.4613 10.3917V12.1746V13.2545V13.2619H8.3144H8.30511L8.24754 12.6166L8.11754 11.1615L8.04883 10.3917H11.4613Z" fill="#EBEBEB"/>
</svg>
