<svg width="26" height="26" viewBox="0 0 26 26" fill="none" xmlns="http://www.w3.org/2000/svg">
<path d="M22.1 0H3.9C1.74609 0 0 1.74609 0 3.9V22.1C0 24.2539 1.74609 26 3.9 26H22.1C24.2539 26 26 24.2539 26 22.1V3.9C26 1.74609 24.2539 0 22.1 0Z" fill="black"/>
<path d="M16.4531 18.7889C16.9609 19.6522 17.6719 20.2616 18.8398 20.2616C19.8555 20.2616 20.5156 19.7538 20.5156 19.0428C20.5156 18.2303 19.8555 17.9257 18.7383 17.4178L18.1289 17.1639C16.3516 16.4022 15.1836 15.4882 15.1836 13.5077C15.1836 11.6796 16.5547 10.2577 18.7383 10.2577C20.3125 10.2577 21.4297 10.8163 22.1914 12.2382L20.3125 13.4569C19.9062 12.6952 19.4492 12.3905 18.7383 12.3905C18.0273 12.3905 17.5703 12.8475 17.5703 13.4569C17.5703 14.1678 18.0273 14.4725 19.0937 14.9296L19.7031 15.1835C21.7852 16.0975 22.9531 16.9608 22.9531 19.0428C22.9531 21.2264 21.2266 22.4452 18.8906 22.4452C16.6055 22.4452 15.1328 21.3788 14.4219 19.9569L16.4531 18.7889ZM7.82031 18.9921C8.22656 19.6522 8.53125 20.2616 9.39453 20.2616C10.207 20.2616 10.7148 19.9569 10.7148 18.7382V10.3085H13.1523V18.6366C13.1523 21.1757 11.6797 22.2928 9.49609 22.2928C7.51562 22.2928 6.39844 21.2772 5.83984 20.0585L7.82031 18.9921Z" fill="white"/>
</svg>
