<svg width="23" height="26" viewBox="0 0 23 26" fill="none" xmlns="http://www.w3.org/2000/svg">
<path d="M2.0865 23.4009L0 0H22.9264L20.8371 23.3972L11.4493 26L2.0865 23.4009Z" fill="black"/>
<path d="M11.4629 24.0109L19.0493 21.9077L20.834 1.9137H11.4629V24.0109Z" fill="black"/>
<path d="M11.463 10.592H7.66517L7.40332 7.65305H11.463V4.78284H11.4528H4.2666L4.33532 5.55355L5.0401 13.4622H11.463V10.592Z" fill="#EBEBEB"/>
<path d="M11.4628 18.0456L11.4498 18.0493L8.25361 17.1866L8.04933 14.8977H6.49583H5.16797L5.57004 19.4031L11.4498 21.0356L11.4628 21.0318V18.0456Z" fill="#EBEBEB"/>
<path d="M11.4531 10.5922V13.4624H14.9873L14.6548 17.185L11.4531 18.0486V21.0349L17.3375 19.4034L17.3802 18.9187L18.0543 11.3629L18.1249 10.5922H17.3514H11.4531Z" fill="white"/>
<path d="M11.4531 4.78284V6.56569V7.64655V7.65305H18.3766H18.3858L18.4434 7.00862L18.5743 5.55355L18.6431 4.78284H11.4531Z" fill="white"/>
</svg>
