<svg width="222" height="37" viewBox="0 0 222 37" fill="none" xmlns="http://www.w3.org/2000/svg">
<path d="M209.791 36.4203C207.166 36.4203 204.899 35.8749 202.99 34.784C201.092 33.6817 199.632 32.1249 198.609 30.1135C197.587 28.0908 197.075 25.7101 197.075 22.9715C197.075 20.2783 197.587 17.9146 198.609 15.8805C199.643 13.8351 201.087 12.2442 202.939 11.1078C204.791 9.96009 206.967 9.38623 209.467 9.38623C211.081 9.38623 212.604 9.64759 214.036 10.1703C215.479 10.6817 216.751 11.4771 217.854 12.5567C218.967 13.6362 219.842 15.0112 220.479 16.6817C221.115 18.3408 221.433 20.318 221.433 22.6135V24.5056H199.973V20.3465H215.518C215.507 19.1646 215.251 18.1135 214.751 17.193C214.251 16.2612 213.553 15.5283 212.655 14.9942C211.768 14.4601 210.734 14.193 209.553 14.193C208.291 14.193 207.183 14.4999 206.229 15.1135C205.274 15.7158 204.53 16.5112 203.996 17.4999C203.473 18.4771 203.206 19.551 203.195 20.7215V24.3521C203.195 25.8749 203.473 27.1817 204.03 28.2726C204.587 29.3521 205.365 30.1817 206.365 30.7612C207.365 31.3294 208.536 31.6135 209.876 31.6135C210.774 31.6135 211.587 31.4885 212.314 31.2385C213.041 30.9771 213.672 30.5965 214.206 30.0965C214.74 29.5965 215.144 28.9771 215.416 28.2385L221.178 28.8862C220.814 30.409 220.121 31.7385 219.098 32.8749C218.087 33.9999 216.791 34.8749 215.212 35.4999C213.632 36.1135 211.825 36.4203 209.791 36.4203Z" fill="black"/>
<path d="M180.247 35.9091V9.72729H186.23V14.0909H186.503C186.98 12.5796 187.798 11.4148 188.957 10.5966C190.128 9.76707 191.463 9.35229 192.963 9.35229C193.304 9.35229 193.685 9.36934 194.105 9.40343C194.537 9.42616 194.895 9.46593 195.179 9.52275V15.1989C194.918 15.108 194.503 15.0284 193.935 14.9603C193.378 14.8807 192.838 14.8409 192.315 14.8409C191.19 14.8409 190.179 15.0853 189.281 15.5739C188.395 16.0512 187.696 16.7159 187.185 17.5682C186.673 18.4205 186.418 19.4034 186.418 20.5171V35.9091H180.247Z" fill="black"/>
<path d="M167.732 24.8978V9.72729H173.902V35.9091H167.919V31.2557H167.646C167.055 32.7216 166.084 33.9205 164.732 34.8523C163.391 35.7841 161.737 36.25 159.771 36.25C158.055 36.25 156.538 35.8693 155.22 35.108C153.913 34.3353 152.891 33.2159 152.152 31.75C151.413 30.2728 151.044 28.4887 151.044 26.3978V9.72729H157.215V25.4432C157.215 27.1023 157.669 28.4205 158.578 29.3978C159.487 30.375 160.68 30.8637 162.158 30.8637C163.067 30.8637 163.947 30.6421 164.8 30.1989C165.652 29.7557 166.351 29.0966 166.896 28.2216C167.453 27.3353 167.732 26.2273 167.732 24.8978Z" fill="black"/>
<path d="M145.883 9.72732V14.5H130.832V9.72732H145.883ZM134.548 3.45459H140.719V28.0341C140.719 28.8637 140.844 29.5 141.094 29.9432C141.355 30.375 141.696 30.6705 142.116 30.8296C142.537 30.9887 143.003 31.0682 143.514 31.0682C143.9 31.0682 144.253 31.0398 144.571 30.983C144.9 30.9262 145.15 30.875 145.321 30.8296L146.361 35.6535C146.031 35.7671 145.56 35.8921 144.946 36.0285C144.344 36.1648 143.605 36.2444 142.73 36.2671C141.185 36.3125 139.793 36.0796 138.554 35.5682C137.315 35.0455 136.332 34.2387 135.605 33.1478C134.889 32.0569 134.537 30.6932 134.548 29.0569V3.45459Z" fill="black"/>
<path d="M126.464 1V35.9091H120.294V1H126.464Z" fill="black"/>
<path d="M107.778 24.8978V9.72729H113.949V35.9091H107.966V31.2557H107.693C107.102 32.7216 106.131 33.9205 104.778 34.8523C103.437 35.7841 101.784 36.25 99.8181 36.25C98.1022 36.25 96.5851 35.8693 95.267 35.108C93.9601 34.3353 92.9374 33.2159 92.1988 31.75C91.4601 30.2728 91.0908 28.4887 91.0908 26.3978V9.72729H97.2613V25.4432C97.2613 27.1023 97.7158 28.4205 98.6249 29.3978C99.534 30.375 100.727 30.8637 102.204 30.8637C103.114 30.8637 103.994 30.6421 104.847 30.1989C105.699 29.7557 106.398 29.0966 106.943 28.2216C107.5 27.3353 107.778 26.2273 107.778 24.8978Z" fill="black"/>
<path d="M85.5725 12.7784H79.1975C79.0156 11.7329 78.6804 10.8068 78.1918 9.99998C77.7031 9.1818 77.0952 8.48861 76.3679 7.92043C75.6406 7.35225 74.8111 6.92611 73.8793 6.64202C72.9588 6.34657 71.9645 6.19884 70.8963 6.19884C68.9986 6.19884 67.3168 6.67611 65.8509 7.63066C64.385 8.57384 63.2372 9.9602 62.4077 11.7898C61.5781 13.6079 61.1634 15.8295 61.1634 18.4545C61.1634 21.125 61.5781 23.375 62.4077 25.2045C63.2486 27.0227 64.3963 28.3977 65.8509 29.3295C67.3168 30.25 68.9929 30.7102 70.8793 30.7102C71.9247 30.7102 72.902 30.5738 73.8111 30.3011C74.7316 30.017 75.5554 29.6023 76.2827 29.0568C77.0213 28.5113 77.6406 27.8409 78.1406 27.0454C78.652 26.25 79.0043 25.3409 79.1975 24.3182L85.5725 24.3522C85.3338 26.0113 84.8168 27.5682 84.0213 29.0227C83.2372 30.4773 82.2088 31.7613 80.9361 32.875C79.6634 33.9772 78.1747 34.8409 76.4702 35.4659C74.7656 36.0795 72.8736 36.3863 70.7941 36.3863C67.7259 36.3863 64.9872 35.6761 62.5781 34.2557C60.1691 32.8352 58.2713 30.7841 56.885 28.1022C55.4986 25.4204 54.8054 22.2045 54.8054 18.4545C54.8054 14.6932 55.5043 11.4773 56.902 8.8068C58.2997 6.12498 60.2031 4.07384 62.6122 2.65339C65.0213 1.23293 67.7486 0.522705 70.7941 0.522705C72.7372 0.522705 74.5441 0.795432 76.2145 1.34089C77.885 1.88634 79.3736 2.68748 80.6804 3.7443C81.9872 4.78975 83.0611 6.07384 83.902 7.59657C84.7543 9.10793 85.3111 10.8352 85.5725 12.7784Z" fill="black"/>
<path d="M12.8011 36.3863C10.3466 36.3863 8.16477 35.9659 6.25568 35.125C4.35795 34.2841 2.85795 33.1136 1.75568 31.6136C0.653409 30.1136 0.0681818 28.3807 0 26.4147H6.40909C6.46591 27.3579 6.77841 28.1818 7.34659 28.8863C7.91477 29.5795 8.67045 30.1193 9.61364 30.5057C10.5568 30.892 11.6136 31.0852 12.7841 31.0852C14.0341 31.0852 15.142 30.8693 16.108 30.4375C17.0739 29.9943 17.8295 29.3807 18.375 28.5966C18.9205 27.8125 19.1875 26.9091 19.1761 25.8863C19.1875 24.8295 18.9148 23.8977 18.358 23.0909C17.8011 22.2841 16.9943 21.6534 15.9375 21.1988C14.892 20.7443 13.6307 20.517 12.1534 20.517H9.06818V15.642H12.1534C13.3693 15.642 14.4318 15.4318 15.3409 15.0113C16.2614 14.5909 16.983 14 17.5057 13.2386C18.0284 12.4659 18.2841 11.5738 18.2727 10.5625C18.2841 9.57384 18.0625 8.71589 17.608 7.98862C17.1648 7.24998 16.5341 6.67611 15.7159 6.26702C14.9091 5.85793 13.9602 5.65339 12.8693 5.65339C11.8011 5.65339 10.8125 5.84657 9.90341 6.23293C8.99432 6.6193 8.26136 7.17043 7.70455 7.88634C7.14773 8.59089 6.85227 9.4318 6.81818 10.4091H0.732955C0.778409 8.45452 1.34091 6.73862 2.42045 5.26134C3.51136 3.77271 4.96591 2.61361 6.78409 1.78407C8.60227 0.94316 10.642 0.522705 12.9034 0.522705C15.233 0.522705 17.2557 0.960205 18.9716 1.83521C20.6989 2.69884 22.0341 3.86361 22.9773 5.32952C23.9205 6.79543 24.392 8.41475 24.392 10.1875C24.4034 12.1534 23.8239 13.8011 22.6534 15.1307C21.4943 16.4602 19.9716 17.3295 18.0852 17.7386V18.0113C20.5398 18.3523 22.4205 19.2613 23.7273 20.7386C25.0455 22.2045 25.6989 24.0284 25.6875 26.2102C25.6875 28.1648 25.1307 29.9148 24.017 31.4602C22.9148 32.9943 21.392 34.1988 19.4489 35.0738C17.517 35.9488 15.3011 36.3863 12.8011 36.3863Z" fill="black"/>
<path d="M36.8076 11.0529C36.1648 11.0529 35.5896 10.8878 35.0817 10.5575C34.5739 10.2273 34.1727 9.74787 33.8779 9.11932C33.5832 8.49077 33.4358 7.72727 33.4358 6.82884C33.4358 5.91974 33.5849 5.1527 33.8832 4.5277C34.1851 3.89915 34.5917 3.42507 35.103 3.10547C35.6144 2.78232 36.1844 2.62074 36.8129 2.62074C37.2923 2.62074 37.6865 2.70241 37.9955 2.86577C38.3044 3.02557 38.5494 3.21911 38.7305 3.44638C38.9116 3.6701 39.0519 3.88139 39.1513 4.08026H39.2312V0H41.1648V10.9091H39.2685V9.62003H39.1513C39.0519 9.81889 38.9081 10.0302 38.7199 10.2539C38.5317 10.4741 38.2831 10.6623 37.9741 10.8185C37.6652 10.9748 37.2763 11.0529 36.8076 11.0529ZM37.3456 9.47088C37.754 9.47088 38.102 9.3608 38.3896 9.14062C38.6773 8.9169 38.8957 8.60618 39.0448 8.20845C39.194 7.81072 39.2685 7.3473 39.2685 6.81818C39.2685 6.28906 39.194 5.82919 39.0448 5.43857C38.8992 5.04794 38.6826 4.74432 38.395 4.5277C38.1109 4.31108 37.7611 4.20277 37.3456 4.20277C36.9159 4.20277 36.5572 4.31463 36.2696 4.53835C35.982 4.76207 35.7653 5.07102 35.6197 5.4652C35.4741 5.85938 35.4013 6.31037 35.4013 6.81818C35.4013 7.32955 35.4741 7.78587 35.6197 8.18715C35.7689 8.58487 35.9873 8.89915 36.2749 9.12997C36.5661 9.35724 36.923 9.47088 37.3456 9.47088Z" fill="black"/>
<path d="M28.1611 10.9091V2.72729H30.0308V4.09093H30.116C30.2652 3.61863 30.5209 3.25464 30.8831 2.99896C31.2488 2.73972 31.6661 2.61011 32.1349 2.61011C32.2414 2.61011 32.3604 2.61543 32.4917 2.62609C32.6267 2.63319 32.7385 2.64562 32.8273 2.66337V4.43717C32.7457 4.40876 32.616 4.3839 32.4385 4.36259C32.2645 4.33774 32.0958 4.32531 31.9324 4.32531C31.5809 4.32531 31.2648 4.40166 30.9843 4.55435C30.7073 4.7035 30.4889 4.91124 30.3291 5.17758C30.1693 5.44391 30.0894 5.75109 30.0894 6.0991V10.9091H28.1611Z" fill="black"/>
</svg>
