<svg width="23" height="29" viewBox="0 0 23 29" fill="none" xmlns="http://www.w3.org/2000/svg">
<path d="M21.5625 7.33271H17.25V5.9121C17.25 4.40503 16.6442 2.95968 15.5659 1.89402C14.4875 0.828358 13.025 0.229675 11.5 0.229675C9.97501 0.229675 8.51247 0.828358 7.43414 1.89402C6.3558 2.95968 5.75 4.40503 5.75 5.9121V7.33271H1.4375C1.05625 7.33271 0.690618 7.48238 0.421034 7.74879C0.151451 8.01521 0 8.37654 0 8.75331V24.38C0 25.5103 0.454352 26.5943 1.2631 27.3935C2.07185 28.1928 3.16875 28.6418 4.3125 28.6418H18.6875C19.8312 28.6418 20.9281 28.1928 21.7369 27.3935C22.5456 26.5943 23 25.5103 23 24.38V8.75331C23 8.37654 22.8486 8.01521 22.579 7.74879C22.3094 7.48238 21.9437 7.33271 21.5625 7.33271ZM8.625 5.9121C8.625 5.15856 8.9279 4.43589 9.46707 3.90306C10.0062 3.37023 10.7375 3.07089 11.5 3.07089C12.2625 3.07089 12.9938 3.37023 13.5329 3.90306C14.0721 4.43589 14.375 5.15856 14.375 5.9121V7.33271H8.625V5.9121ZM20.125 24.38C20.125 24.7567 19.9736 25.1181 19.704 25.3845C19.4344 25.6509 19.0687 25.8006 18.6875 25.8006H4.3125C3.93125 25.8006 3.56562 25.6509 3.29603 25.3845C3.02645 25.1181 2.875 24.7567 2.875 24.38V10.1739H5.75V11.5945C5.75 11.9713 5.90145 12.3326 6.17103 12.599C6.44062 12.8655 6.80625 13.0151 7.1875 13.0151C7.56875 13.0151 7.93438 12.8655 8.20397 12.599C8.47355 12.3326 8.625 11.9713 8.625 11.5945V10.1739H14.375V11.5945C14.375 11.9713 14.5265 12.3326 14.796 12.599C15.0656 12.8655 15.4313 13.0151 15.8125 13.0151C16.1937 13.0151 16.5594 12.8655 16.829 12.599C17.0985 12.3326 17.25 11.9713 17.25 11.5945V10.1739H20.125V24.38Z" fill="black"/>
</svg>
